<?xml version="1.0" encoding="UTF-8" standalone="no"?>
<!-- Generator: Adobe Illustrator 19.0.0, SVG Export Plug-In . SVG Version: 6.00 Build 0)  -->

<svg
   xmlns:dc="http://purl.org/dc/elements/1.1/"
   xmlns:cc="http://creativecommons.org/ns#"
   xmlns:rdf="http://www.w3.org/1999/02/22-rdf-syntax-ns#"
   xmlns:svg="http://www.w3.org/2000/svg"
   xmlns="http://www.w3.org/2000/svg"
   xmlns:sodipodi="http://sodipodi.sourceforge.net/DTD/sodipodi-0.dtd"
   xmlns:inkscape="http://www.inkscape.org/namespaces/inkscape"
   version="1.1"
   id="Capa_1"
   x="0px"
   y="0px"
   viewBox="0 0 512.001 512.001"
   style="enable-background:new 0 0 512.001 512.001;"
   xml:space="preserve"
   sodipodi:docname="arm.svg"
   inkscape:version="0.92.3 (2405546, 2018-03-11)"><metadata
   id="metadata51"><rdf:RDF><cc:Work
       rdf:about=""><dc:format>image/svg+xml</dc:format><dc:type
         rdf:resource="http://purl.org/dc/dcmitype/StillImage" /></cc:Work></rdf:RDF></metadata><defs
   id="defs49" /><sodipodi:namedview
   pagecolor="#ffffff"
   bordercolor="#666666"
   borderopacity="1"
   objecttolerance="10"
   gridtolerance="10"
   guidetolerance="10"
   inkscape:pageopacity="0"
   inkscape:pageshadow="2"
   inkscape:window-width="1920"
   inkscape:window-height="1028"
   id="namedview47"
   showgrid="false"
   inkscape:zoom="0.46093662"
   inkscape:cx="131.25449"
   inkscape:cy="256.00049"
   inkscape:window-x="-8"
   inkscape:window-y="-8"
   inkscape:window-maximized="1"
   inkscape:current-layer="Capa_1" />
<g
   id="g14"
   style="fill:#c2c2c2;fill-opacity:1">
	<g
   id="g12"
   style="fill:#c2c2c2;fill-opacity:1">
		<g
   id="g10"
   style="fill:#c2c2c2;fill-opacity:1">
			<path
   d="M430.049,248.336c-2.912-5.344-6.656-12.144-11.2-19.552c4.435-11.587,15.069-19.647,27.424-20.784     c17.647-0.954,32.727,12.578,33.681,30.225c0.032,0.591,0.047,1.183,0.047,1.775h32c-0.054-17.542-7.266-34.301-19.968-46.4     c-24.813-24.031-64.408-23.397-88.439,1.415c-1.773,1.831-3.432,3.768-4.969,5.801c-18.791-24.672-47.633-39.644-78.624-40.816     c-42.661-1.553-82.683,20.613-104,57.6l21.12-105.6h53.552c25.023-0.026,45.302-20.305,45.328-45.328     C335.966,29.865,306.136,0.036,269.329,0h-85.44L13.009,233.008c-16.955,23.144-17.373,54.493-1.04,78.08     c54.383,73.454,135.472,122.573,225.76,136.752c104.224,14.832,163.2-11.744,194.272-28.208V512h32V384h-33.328l-6.88,3.696     c-25.76,13.984-79.312,43.2-181.52,28.464C160.824,403.107,87.653,358.864,38.257,292.8c-8.567-12.36-8.336-28.798,0.576-40.912     L200.113,32h69.216c19.142,0.018,34.654,15.531,34.672,34.672C303.992,74.03,298.03,79.992,290.673,80h-79.792l-33.28,166.832     l47.728,18.016l6.784-11.84C248.417,224.4,266.977,192,320.001,192c37.712,0,62.592,36.24,81.952,71.664     c17.6,32.08,66.592,67.792,68.672,69.312l18.752-25.952C466.436,290.944,446.377,271.102,430.049,248.336z"
   id="path2"
   style="fill:#c2c2c2;fill-opacity:1" />
			<path
   d="M296.001,356.176v32c39.433,0.893,78.363-8.993,112.592-28.592l-15.28-28.128     C363.779,348.521,330.098,357.077,296.001,356.176z"
   id="path4"
   style="fill:#c2c2c2;fill-opacity:1" />
			<path
   d="M95.617,262.624l-24.944,20.064c28.814,35.11,65.34,63.1,106.736,81.792l12.96-29.248     C153.612,318.655,121.184,293.805,95.617,262.624z"
   id="path6"
   style="fill:#c2c2c2;fill-opacity:1" />
			<path
   d="M209.297,376.288c10.894,3.245,21.99,5.767,33.216,7.552l5.04-31.584c-9.843-1.586-19.575-3.798-29.136-6.624     L209.297,376.288z"
   id="path8"
   style="fill:#c2c2c2;fill-opacity:1" />
		</g>
	</g>
</g>
<g
   id="g16">
</g>
<g
   id="g18">
</g>
<g
   id="g20">
</g>
<g
   id="g22">
</g>
<g
   id="g24">
</g>
<g
   id="g26">
</g>
<g
   id="g28">
</g>
<g
   id="g30">
</g>
<g
   id="g32">
</g>
<g
   id="g34">
</g>
<g
   id="g36">
</g>
<g
   id="g38">
</g>
<g
   id="g40">
</g>
<g
   id="g42">
</g>
<g
   id="g44">
</g>
</svg>