<svg id="Vrstva_1" data-name="Vrstva 1" xmlns="http://www.w3.org/2000/svg" viewBox="0 0 120.49 60.51"><defs><style>.cls-1{fill:#231f20;}.cls-2{fill:#423a11;}.cls-3{fill:#009444;}.cls-4{fill:#00aeef;}</style></defs><title>logo-bandor</title><path class="cls-1" d="M111.76,127.18a3.12,3.12,0,0,1-1.41,2.59,5.56,5.56,0,0,1-3.17.71h-6.34V130c1.56-.17,1.64-1.06,1.64-3.07v-5.35c0-2.45,0-3.67-1.64-4.05V117h4c3.75,0,5.7,1.34,5.7,3.59a3.28,3.28,0,0,1-2.15,3c2.25.65,3.4,1.92,3.4,3.63m-6.18-4c1.91,0,2.88-1,2.88-2.41,0-1.76-1.3-2.86-3.75-2.86h-.33q-.06,1.15-.06,2.37v2.84c.57,0,1,.06,1.26.06m1.28,6.37c1.9,0,2.9-.79,2.9-2.31,0-2-1.63-3.12-4.69-3.12-.24,0-.48,0-.75,0v3c0,1.7.47,2.39,2.54,2.39" transform="translate(-85.84 -95.55)"/><path class="cls-1" d="M121.5,130.48V130c.77-.06,1.16-.31,1.16-.73a24.92,24.92,0,0,0-1.36-3.65h-4.57a18.57,18.57,0,0,0-.93,3.16c0,.67.43,1.07,1.3,1.22v.52h-4.66V130c1.56-.17,2.06-1.16,2.81-3.37l2.11-6.2c.33-1,.69-2.15,1.1-3.55H120c.28,1,.63,1.92,1,2.9l2.94,7.4c.61,1.54.9,2.55,2.56,2.82v.52Zm-2.74-11.11-1.6,4.89h3.61Z" transform="translate(-85.84 -95.55)"/><path class="cls-1" d="M140.4,120.41l0,6.44c0,1.46,0,2.74.08,3.78h-.53c-.5-.65-1.09-1.34-1.74-2l-8.11-8.74V127c0,1.92,0,2.69,1.86,3v.52H127.1V130c1.84-.25,1.9-.92,1.9-3v-8.12a4,4,0,0,0-2.55-1.35V117h3.81a119,119,0,0,0,9,10v-6.46c0-1.93,0-2.68-1.86-3V117h4.87v.53c-1.81.26-1.85,1-1.87,2.92" transform="translate(-85.84 -95.55)"/><path class="cls-1" d="M155.29,118.82A6.63,6.63,0,0,1,155,129c-1.5,1.14-3.34,1.46-5.8,1.46h-6V130c1.46-.19,1.67-.94,1.67-2.88v-6.33c0-1.93-.29-2.88-1.67-3.26V117h5.44c2.77,0,4.76.22,6.57,1.86m-8.5,8.28c0,1.94.53,2.45,2.82,2.45,3.75,0,5.78-1.93,5.78-5.43,0-3.94-2.52-6.13-7.4-6.13-.37,0-.73,0-1.12,0-.06,1.5-.08,2.54-.08,3.11v6Z" transform="translate(-85.84 -95.55)"/><path class="cls-1" d="M171.41,128.68a7,7,0,0,1-5,2.07,7.27,7.27,0,0,1-7.24-7.22,6.56,6.56,0,0,1,2.07-4.85,7.29,7.29,0,0,1,5.07-2,7.09,7.09,0,0,1,5.11,2,6.85,6.85,0,0,1,2,5,6.94,6.94,0,0,1-2.07,5m.08-4a7.68,7.68,0,0,0-1.7-4.7,5.19,5.19,0,0,0-4.08-2.09,4.34,4.34,0,0,0-4.48,4.6,7.39,7.39,0,0,0,1.74,4.81,5.46,5.46,0,0,0,4.1,2.05c2.66,0,4.42-1.81,4.42-4.67" transform="translate(-85.84 -95.55)"/><path class="cls-1" d="M184.31,130.48c-1.36-2.53-2.33-4.23-3.16-5a4.42,4.42,0,0,0-2.8-.73V127c0,1.92.1,2.75,1.64,2.94v.52h-5.13V130c1.56-.17,1.64-1,1.64-3.07v-5.61c0-2.29-.08-3.45-1.64-3.79V117h3.51c2.11,0,3.51.12,4.21.55a3.91,3.91,0,0,1,2.19,3.44,3.57,3.57,0,0,1-2.39,3.35,10.45,10.45,0,0,1,2.46,3.16c.87,1.42,1.35,2.37,2.65,2.5v.52Zm-4.79-6.71c2.15,0,3.33-.93,3.33-2.49,0-1.85-1.18-3.13-3.45-3.13h-1c0,1.73,0,2.76,0,3.15v2.43c.48,0,.87,0,1.17,0" transform="translate(-85.84 -95.55)"/><path class="cls-2" d="M85.84,115.6l.33-.06,1-.22c.83-.2,2-.52,3.54-1,.75-.22,1.57-.54,2.45-.88l1.38-.53,1.45-.64,1.55-.68c.52-.25,1-.55,1.58-.83,1.08-.58,2.25-1.1,3.37-1.84l1.74-1.06c.59-.35,1.2-.72,1.81-1.14,1.23-.81,2.51-1.62,3.84-2.46,2.65-1.67,5.44-3.47,8.56-5.09a41.09,41.09,0,0,1,5-2.24,21.43,21.43,0,0,1,5.72-1.3l.76,0,.38,0h.46l1.35.06a24.8,24.8,0,0,1,2.91.3,49.33,49.33,0,0,1,5.61,1.28c3.61,1.08,7,2.42,10.34,3.66l5,1.84c.81.3,1.61.59,2.41.84l1.19.39,1.19.34a62.29,62.29,0,0,0,9.32,1.92l2.32.35,1.12.17.55.09.56.12c1.5.33,2.94.64,4.27,1s2.61.79,3.8,1.19,2.31.87,3.34,1.31a56.23,56.23,0,0,1,5.24,2.5A20.13,20.13,0,0,1,193,114c.53.33,1,.61,1.33.86.71.48,1.07.76,1.07.76l-1.2-.53c-.79-.35-1.91-.82-3.43-1.34-.37-.12-.78-.29-1.17-.4L188.3,113l-1.43-.43-1.53-.44c-2.12-.57-4.51-1.15-7.15-1.6-1.32-.26-2.68-.4-4.08-.57s-3-.26-4.47-.37a56.89,56.89,0,0,1-10-1.4A99.54,99.54,0,0,1,149.41,105c-3.41-1.16-6.79-2.48-10.14-3.45-.84-.22-1.68-.49-2.52-.68l-1.25-.27-.63-.14-.59-.09a21.42,21.42,0,0,0-2.47-.3l-1.35-.09h-1.08a26.42,26.42,0,0,0-9.22,2.76c-3,1.39-5.89,2.94-8.63,4.4l-4,2.16c-.64.35-1.3.67-2,1l-1.93.92a37.13,37.13,0,0,1-3.68,1.54c-.6.21-1.17.45-1.74.63l-1.68.5-1.56.46c-.51.14-1,.24-1.48.34-1,.2-1.82.4-2.63.5a32.68,32.68,0,0,1-3.7.41c-.86,0-1.32,0-1.32,0" transform="translate(-85.84 -95.55)"/><path class="cls-3" d="M86.55,144s.3-.28.88-.76,1.45-1.19,2.64-2a35.12,35.12,0,0,1,4.44-2.61,28,28,0,0,1,6.37-2.3c.61-.14,1.25-.23,1.9-.34s1.3-.13,2-.18,1.29,0,2,0l1.08.07,1.06.14a45.19,45.19,0,0,1,8.69,2.1c2.92,1,5.88,2.1,8.81,3.36l8.84,3.81c2.94,1.3,5.89,2.55,8.81,3.67s5.83,2.15,8.68,2.93a56.53,56.53,0,0,0,8.33,1.66c.67.08,1.33.15,2,.17l1,.06h1c1.3,0,2.57.06,3.76,0l3.42-.11,3.1-.2c2-.18,3.65-.34,5-.54s2.49-.36,3.24-.49l1.14-.21-1.1.38c-.36.13-.8.27-1.33.43s-1.13.35-1.82.52c-1.37.38-3.05.77-5,1.14l-3.12.53-3.5.41c-1.22.11-2.47.17-3.78.27l-1,.05h-1c-.69,0-1.4,0-2.11-.05a48.27,48.27,0,0,1-8.83-1.32,76.45,76.45,0,0,1-9.07-2.76c-3-1.11-6-2.35-9-3.62l-8.8-3.91c-2.89-1.26-5.72-2.53-8.51-3.55a53,53,0,0,0-8.13-2.41l-1-.18-.94-.12c-.6-.1-1.31-.1-1.95-.17s-1.2,0-1.79,0-1.19.08-1.76.17A30.37,30.37,0,0,0,95,139.76a46.75,46.75,0,0,0-4.61,2c-1.24.65-2.21,1.18-2.86,1.58s-1,.62-1,.62" transform="translate(-85.84 -95.55)"/><path class="cls-4" d="M122.44,136.28l2.51.36c1.6.23,3.88.53,6.61.84,1.37.14,2.85.29,4.42.42s3.22.22,4.92.31c.86,0,1.73,0,2.6.07h2.65c1.82,0,3.66-.07,5.47-.2s3.64-.21,5.44-.35l5.28-.44,2.55-.21c.84,0,1.66-.09,2.46-.11s1.59,0,2.35,0l2.16.13c1.38.11,2.66.22,3.78.39s2.09.33,2.88.49a19.69,19.69,0,0,1,2.47.65l-.66-.1c-.43,0-1.06-.11-1.86-.17s-1.78-.11-2.89-.13-2.37,0-3.74,0l-2.16.06c-.72,0-1.48.08-2.25.13s-1.58.17-2.39.25l-2.52.31c-1.71.21-3.48.45-5.3.62s-3.65.34-5.52.42-3.7.11-5.51.13-3.65-.1-5.39-.23-3.41-.34-5-.57-3.05-.5-4.42-.76c-2.72-.54-5-1.12-6.52-1.56-.78-.21-1.38-.41-1.79-.54l-.64-.2" transform="translate(-85.84 -95.55)"/><path class="cls-4" d="M134.81,141.42s.88.15,2.42.38l2.76.4c1.07.15,2.28.28,3.59.44a80.41,80.41,0,0,0,9,.49c1.63,0,3.38-.1,5.09-.17s3.48-.2,5.23-.35,3.52-.29,5.24-.48l5.08-.57c1.64-.2,3.24-.37,4.77-.53s3-.26,4.34-.26c.34,0,.67,0,1,0l.93.05c.6,0,1.18.09,1.73.15,1.09.1,2,.24,2.79.38a15.6,15.6,0,0,1,1.78.39,6,6,0,0,1,.61.18s-.22,0-.63-.08-1-.08-1.8-.11-1.71,0-2.78,0c-.53,0-1.11,0-1.71.05l-.94,0-.94.07c-2.59.26-5.64.86-8.93,1.37-1.65.25-3.35.54-5.09.74s-3.52.4-5.3.56-3.56.22-5.33.28-3.47,0-5.16,0a48.29,48.29,0,0,1-4.85-.4c-1.53-.19-3-.45-4.27-.71-2.63-.52-4.79-1.11-6.28-1.55s-2.33-.76-2.33-.76" transform="translate(-85.84 -95.55)"/><path class="cls-4" d="M144.73,146.2s1,.18,2.64.42,4.08.54,7,.76c1.44.11,3,.16,4.65.21s3.36,0,5.19-.08c.9,0,1.8-.11,2.72-.17s1.85-.16,2.79-.26c1.89-.19,3.79-.45,5.7-.73s3.82-.56,5.7-.86,3.75-.57,5.56-.81,3.59-.41,5.28-.48c.84,0,1.67,0,2.47,0l2.28.12c1.47.1,2.8.22,4,.35s2.21.27,3,.39,1.5.24,2,.32l.69.12-2.67-.05-3.06,0-4,0c-1.47,0-3,.06-4.64.24s-3.34.44-5.13.73l-5.5,1c-1.89.32-3.81.64-5.74.93s-3.87.5-5.79.67c-1,.1-1.91.14-2.85.2s-1.9.08-2.81.08c-1.81,0-3.63-.05-5.29-.18s-3.26-.33-4.71-.56a59.84,59.84,0,0,1-6.91-1.48c-1.64-.46-2.56-.8-2.56-.8" transform="translate(-85.84 -95.55)"/></svg>