<?xml version="1.0" encoding="UTF-8" standalone="no"?>
<!-- Generator: Adobe Illustrator 19.0.0, SVG Export Plug-In . SVG Version: 6.00 Build 0)  -->

<svg
   xmlns:dc="http://purl.org/dc/elements/1.1/"
   xmlns:cc="http://creativecommons.org/ns#"
   xmlns:rdf="http://www.w3.org/1999/02/22-rdf-syntax-ns#"
   xmlns:svg="http://www.w3.org/2000/svg"
   xmlns="http://www.w3.org/2000/svg"
   xmlns:sodipodi="http://sodipodi.sourceforge.net/DTD/sodipodi-0.dtd"
   xmlns:inkscape="http://www.inkscape.org/namespaces/inkscape"
   version="1.1"
   id="Capa_1"
   x="0px"
   y="0px"
   viewBox="0 0 512 512"
   style="enable-background:new 0 0 512 512;"
   xml:space="preserve"
   sodipodi:docname="mouth.svg"
   inkscape:version="0.92.3 (2405546, 2018-03-11)"><metadata
   id="metadata49"><rdf:RDF><cc:Work
       rdf:about=""><dc:format>image/svg+xml</dc:format><dc:type
         rdf:resource="http://purl.org/dc/dcmitype/StillImage" /></cc:Work></rdf:RDF></metadata><defs
   id="defs47" /><sodipodi:namedview
   pagecolor="#ffffff"
   bordercolor="#666666"
   borderopacity="1"
   objecttolerance="10"
   gridtolerance="10"
   guidetolerance="10"
   inkscape:pageopacity="0"
   inkscape:pageshadow="2"
   inkscape:window-width="640"
   inkscape:window-height="480"
   id="namedview45"
   showgrid="false"
   inkscape:zoom="0.4609375"
   inkscape:cx="256"
   inkscape:cy="256"
   inkscape:window-x="0"
   inkscape:window-y="0"
   inkscape:window-maximized="0"
   inkscape:current-layer="Capa_1" />
<g
   id="g6"
   style="fill:#ffffff">
	<g
   id="g4"
   style="fill:#ffffff">
		<path
   d="M393.439,253.045l-0.174-0.031c-26.924-4.692-46.383-8.082-60.113-8.082c-11.455,0-16.159,1.908-23.969,9.722    c-13.58,13.582-32.671,21.367-52.381,21.367s-38.8-7.785-52.375-21.359c-7.815-7.815-12.518-9.723-23.961-9.723    c-13.695,0-33.109,3.377-59.978,8.05l-0.338,0.059c-33.146,5.773-69.518,11.894-118.422,18.063l21.033,14.5    c21,14.477,41.185,31.774,60.061,48.248c49.26,42.996,100.199,87.457,173.981,87.457c73.781,0,124.72-44.46,173.981-87.457    c18.875-16.475,39.061-33.771,60.061-48.248l21.037-14.502C463.011,264.948,426.622,258.824,393.439,253.045z"
   id="path2"
   style="fill:#ffffff" />
	</g>
</g>
<g
   id="g12"
   style="fill:#ffffff">
	<g
   id="g10"
   style="fill:#ffffff">
		<path
   d="M479.245,220.821c-45.722-29.902-69.501-58.735-88.612-81.907c-21.344-25.88-39.777-48.229-74.942-48.229    c-21.361,0-41.605,8.37-57.001,23.57l-2.8,2.764l-2.801-2.762c-15.414-15.201-35.662-23.572-57.018-23.572    c-35.165,0-52.729,21.296-74.966,48.259c-19.099,23.158-42.869,51.98-88.638,81.905L0,241.355    c46.245-5.893,80.144-11.6,113.431-17.397l0.33-0.057c28.543-4.964,49.166-8.552,65.787-8.552    c20.348,0,33.785,5.508,47.925,19.649c7.267,7.266,17.622,11.433,28.411,11.433s21.145-4.168,28.411-11.434    c14.137-14.145,27.577-19.655,47.94-19.655c16.66,0,37.33,3.602,65.942,8.588l0.158,0.028    c33.362,5.81,67.342,11.529,113.665,17.425L479.245,220.821z"
   id="path8"
   style="fill:#ffffff" />
	</g>
</g>
<g
   id="g14">
</g>
<g
   id="g16">
</g>
<g
   id="g18">
</g>
<g
   id="g20">
</g>
<g
   id="g22">
</g>
<g
   id="g24">
</g>
<g
   id="g26">
</g>
<g
   id="g28">
</g>
<g
   id="g30">
</g>
<g
   id="g32">
</g>
<g
   id="g34">
</g>
<g
   id="g36">
</g>
<g
   id="g38">
</g>
<g
   id="g40">
</g>
<g
   id="g42">
</g>
</svg>